<svg width="353" height="293" viewBox="0 0 353 293" fill="none" xmlns="http://www.w3.org/2000/svg">
<g opacity="0.08">
<path opacity="0.08" d="M25.9707 182.533C25.9707 182.533 36.4642 239.047 89.6865 269.671C142.9 300.296 209.052 292.99 262.823 288.479C316.594 283.968 352.876 247.628 352.094 201.179C351.311 154.731 308.609 147.569 278.64 99.1158C248.67 50.672 248.041 33.3379 196.491 8.59034C144.941 -16.1483 74.895 14.5481 44.9344 74.9703C14.9738 135.393 25.9707 182.533 25.9707 182.533Z" fill="#00B533"/>
<path opacity="0.7" d="M25.9707 182.533C25.9707 182.533 36.4642 239.047 89.6865 269.671C142.9 300.296 209.052 292.99 262.823 288.479C316.594 283.968 352.876 247.628 352.094 201.179C351.311 154.731 308.609 147.569 278.64 99.1158C248.67 50.672 248.041 33.3379 196.491 8.59034C144.941 -16.1483 74.895 14.5481 44.9344 74.9703C14.9738 135.393 25.9707 182.533 25.9707 182.533Z" fill="#00B533"/>
</g>
<path d="M283.48 142.038L306.138 191.567L291.875 195.64L275.086 174.623L283.48 142.038Z" fill="#00B533"/>
<path d="M283.48 142.038L306.138 191.567L291.875 195.64L275.086 174.623L283.48 142.038Z" stroke="#263238" stroke-linecap="round" stroke-linejoin="round"/>
<path d="M238.329 128.271L208.744 141.876L224.555 205.823L219.502 232.706H275.574L270.032 203.461L283.643 142.039L252.673 129.33L238.329 128.271Z" fill="#00B533"/>
<path d="M238.329 128.271L208.744 141.876L224.555 205.823L219.502 232.706H275.574L270.032 203.461L283.643 142.039L252.673 129.33L238.329 128.271Z" stroke="#263238" stroke-linecap="round" stroke-linejoin="round"/>
<path d="M208.744 141.876L185.517 192.301L200.35 195.396L217.22 174.461L208.744 141.876Z" fill="#00B533"/>
<path d="M208.744 141.876L185.517 192.301L200.35 195.396L217.22 174.461L208.744 141.876Z" stroke="#263238" stroke-linecap="round" stroke-linejoin="round"/>
<path d="M201.409 187.901L230.831 221.382L225.126 227.818L188.043 198.41C188.043 198.41 182.99 195.966 186.006 190.997" fill="#00B533"/>
<path d="M201.409 187.901L230.831 221.382L225.126 227.818L188.043 198.41C188.043 198.41 182.99 195.966 186.006 190.997" stroke="#263238" stroke-linecap="round" stroke-linejoin="round"/>
<path d="M226.104 220.16C226.919 219.671 241.1 216.331 241.263 218.042C241.426 219.753 245.664 221.708 247.62 221.708C249.576 221.708 251.451 220.16 251.858 222.441C252.266 224.722 250.147 224.966 248.435 225.129C246.724 225.292 240.774 223.419 240.774 223.419C240.774 223.419 235.232 228.062 232.869 229.202C230.505 230.343 226.349 230.017 224.8 228.795C223.252 227.573 221.133 222.848 226.104 220.16Z" fill="white" stroke="#263238" stroke-linecap="round" stroke-linejoin="round"/>
<path d="M239.145 217.798C239.145 217.798 244.524 216.25 245.665 216.82C246.806 217.391 247.376 228.958 247.376 228.958C247.376 228.958 246.806 230.099 245.665 228.958C244.524 227.818 240.693 219.183 240.693 219.183" fill="white"/>
<path d="M239.145 217.798C239.145 217.798 244.524 216.25 245.665 216.82C246.806 217.391 247.376 228.958 247.376 228.958C247.376 228.958 246.806 230.099 245.665 228.958C244.524 227.818 240.693 219.183 240.693 219.183" stroke="#263238" stroke-linecap="round" stroke-linejoin="round"/>
<path d="M236.455 218.206C236.455 218.206 241.997 216.902 243.219 218.939C244.442 220.975 247.294 230.425 244.931 230.832C242.567 231.24 241.834 228.144 241.834 228.144L238.166 221.464L235.64 221.057" fill="white"/>
<path d="M236.455 218.206C236.455 218.206 241.997 216.902 243.219 218.939C244.442 220.975 247.294 230.425 244.931 230.832C242.567 231.24 241.834 228.144 241.834 228.144L238.166 221.464L235.64 221.057" stroke="#263238" stroke-linecap="round" stroke-linejoin="round"/>
<path d="M234.58 219.916C234.58 219.916 237.27 218.776 238.655 219.753C240.041 220.731 246.153 230.506 245.012 230.914C243.871 231.321 241.182 231.077 240.774 230.343C240.367 229.61 235.395 223.012 235.395 223.012" fill="white"/>
<path d="M234.58 219.916C234.58 219.916 237.27 218.776 238.655 219.753C240.041 220.731 246.153 230.506 245.012 230.914C243.871 231.321 241.182 231.077 240.774 230.343C240.367 229.61 235.395 223.012 235.395 223.012" stroke="#263238" stroke-linecap="round" stroke-linejoin="round"/>
<path d="M232.624 223.174C232.624 223.174 235.151 220.894 236.455 221.627C237.759 222.36 243.382 229.691 242.241 230.425C241.1 231.158 240.285 230.425 239.144 228.877C238.329 227.818 237.351 226.922 236.292 226.189L234.01 226.922" fill="white"/>
<path d="M232.624 223.174C232.624 223.174 235.151 220.894 236.455 221.627C237.759 222.36 243.382 229.691 242.241 230.425C241.1 231.158 240.285 230.425 239.144 228.877C238.329 227.818 237.351 226.922 236.292 226.189L234.01 226.922" stroke="#263238" stroke-linecap="round" stroke-linejoin="round"/>
<path d="M289.429 188.961L279.649 222.197L286.74 227.167L302.714 201.506C302.714 201.506 309.316 194.093 305.159 189.938" fill="#00B533"/>
<path d="M289.429 188.961L279.649 222.197L286.74 227.167L302.714 201.506C302.714 201.506 309.316 194.093 305.159 189.938" stroke="#263238" stroke-linecap="round" stroke-linejoin="round"/>
<path d="M284.539 220.16C283.724 219.671 269.543 216.331 269.38 218.042C269.217 219.753 264.979 221.708 263.023 221.708C261.067 221.708 259.193 220.16 258.785 222.441C258.378 224.722 260.497 224.966 262.208 225.129C263.92 225.292 269.869 223.419 269.869 223.419C269.869 223.419 275.411 228.062 277.775 229.202C280.138 230.343 284.295 230.017 285.843 228.795C287.392 227.573 289.511 222.848 284.539 220.16Z" fill="white" stroke="#263238" stroke-linecap="round" stroke-linejoin="round"/>
<path d="M271.499 217.798C271.499 217.798 266.12 216.25 264.979 216.82C263.838 217.391 263.268 228.958 263.268 228.958C263.268 228.958 263.838 230.099 264.979 228.958C266.12 227.818 269.951 219.183 269.951 219.183" fill="white"/>
<path d="M271.499 217.798C271.499 217.798 266.12 216.25 264.979 216.82C263.838 217.391 263.268 228.958 263.268 228.958C263.268 228.958 263.838 230.099 264.979 228.958C266.12 227.818 269.951 219.183 269.951 219.183" stroke="#263238" stroke-linecap="round" stroke-linejoin="round"/>
<path d="M274.189 218.206C274.189 218.206 268.647 216.902 267.506 218.939C266.365 220.975 263.431 230.425 265.795 230.832C268.158 231.24 268.892 228.144 268.892 228.144L272.559 221.464L275.086 221.057" fill="white"/>
<path d="M274.189 218.206C274.189 218.206 268.647 216.902 267.506 218.939C266.365 220.975 263.431 230.425 265.795 230.832C268.158 231.24 268.892 228.144 268.892 228.144L272.559 221.464L275.086 221.057" stroke="#263238" stroke-linecap="round" stroke-linejoin="round"/>
<path d="M276.063 219.916C276.063 219.916 273.374 218.776 271.988 219.753C270.603 220.731 264.49 230.506 265.631 230.914C266.772 231.321 269.462 231.077 269.869 230.343C270.277 229.61 275.248 223.012 275.248 223.012" fill="white"/>
<path d="M276.063 219.916C276.063 219.916 273.374 218.776 271.988 219.753C270.603 220.731 264.49 230.506 265.631 230.914C266.772 231.321 269.462 231.077 269.869 230.343C270.277 229.61 275.248 223.012 275.248 223.012" stroke="#263238" stroke-linecap="round" stroke-linejoin="round"/>
<path d="M278.02 223.174C278.02 223.174 275.493 220.893 274.189 221.708C272.885 222.523 267.262 229.773 268.403 230.506C269.544 231.239 270.359 230.506 271.5 228.958C272.315 227.899 273.293 227.003 274.352 226.27L276.634 227.003" fill="white"/>
<path d="M278.02 223.174C278.02 223.174 275.493 220.893 274.189 221.708C272.885 222.523 267.262 229.773 268.403 230.506C269.544 231.239 270.359 230.506 271.5 228.958C272.315 227.899 273.293 227.003 274.352 226.27L276.634 227.003" stroke="#263238" stroke-linecap="round" stroke-linejoin="round"/>
<path d="M240.448 124.85C240.448 124.85 235.803 126.316 233.847 129.167C231.891 132.018 234.173 154.258 234.173 154.258L249.006 146.03L264.573 155.887C264.573 155.887 263.106 133.159 261.883 129.9C260.661 126.642 252.755 122.895 250.065 123.302C247.376 123.709 240.448 124.85 240.448 124.85Z" fill="#00B533" stroke="#263238" stroke-linecap="round" stroke-linejoin="round"/>
<path d="M238.329 112.55V133.159L248.191 159.635L256.585 132.589V112.387L238.329 112.55Z" fill="white" stroke="#263238" stroke-linecap="round" stroke-linejoin="round"/>
<path d="M238.329 119.963C241.1 121.918 244.442 122.977 247.783 122.977C250.88 122.977 253.896 122.081 256.585 120.451V112.387L238.329 112.55V119.963Z" fill="#263238" stroke="#263238" stroke-linecap="round" stroke-linejoin="round"/>
<path d="M247.865 118.251C238.737 118.251 231.239 110.838 231.239 101.633L228.305 78.335C228.305 67.5006 237.025 58.7842 247.865 58.7842C258.704 58.7842 267.425 67.5006 267.425 78.335L264.409 101.633C264.409 110.838 256.993 118.251 247.865 118.251Z" fill="white" stroke="#263238" stroke-linecap="round" stroke-linejoin="round"/>
<path d="M252.103 95.2789C252.103 95.2789 256.341 91.6946 261.394 95.5233" stroke="#263238" stroke-linecap="round" stroke-linejoin="round"/>
<path d="M244.441 94.8718C243.219 94.0572 241.67 93.7313 240.203 93.8942" stroke="#263238" stroke-linecap="round" stroke-linejoin="round"/>
<path d="M253.732 86.8071C253.732 86.8071 258.215 84.6077 260.986 88.8437" stroke="#263238" stroke-linecap="round" stroke-linejoin="round"/>
<path d="M246.479 104.729C246.479 104.729 248.435 106.195 250.065 104.729" stroke="#263238" stroke-linecap="round" stroke-linejoin="round"/>
<path d="M244.604 107.987C244.604 107.987 248.598 110.431 250.88 107.987" stroke="#263238" stroke-linecap="round" stroke-linejoin="round"/>
<path d="M256.178 75.8917C256.178 75.8917 239.796 90.9621 235.232 101.959C230.668 112.957 234.743 124.443 237.269 127.783C239.796 131.123 241.344 131.53 241.344 131.53C241.344 131.53 232.705 134.87 227 126.154C221.295 117.437 222.762 107.743 224.474 100.982C226.185 94.2206 225.696 74.4254 229.69 67.7455C233.683 61.0656 239.307 56.2594 248.761 57.3184C258.215 58.3774 263.268 63.2651 266.202 69.4562C269.136 75.6473 267.751 85.993 268.729 90.5548C269.707 95.1167 273.782 108.802 274.678 116.948C275.575 125.095 264.491 130.96 262.698 131.775C261.475 132.263 260.253 132.589 258.949 132.589C258.949 132.589 262.698 113.69 263.513 102.856C264.328 92.0211 264.328 85.5856 264.328 85.5856C264.328 85.5856 256.993 76.3805 256.178 75.8917Z" fill="#263238"/>
<path d="M256.178 75.8917C256.178 75.8917 239.796 90.9621 235.232 101.959C230.668 112.957 234.743 124.443 237.269 127.783C239.796 131.123 241.344 131.53 241.344 131.53C241.344 131.53 232.705 134.87 227 126.154C221.295 117.437 222.762 107.743 224.474 100.982C226.185 94.2206 225.696 74.4254 229.69 67.7455C233.683 61.0656 239.307 56.2594 248.761 57.3184C258.215 58.3774 263.268 63.2651 266.202 69.4562C269.136 75.6473 267.751 85.993 268.729 90.5548C269.707 95.1167 273.782 108.802 274.678 116.948C275.575 125.095 264.491 130.96 262.698 131.775C261.475 132.263 260.253 132.589 258.949 132.589C258.949 132.589 262.698 113.69 263.513 102.856C264.328 92.0211 264.328 85.5856 264.328 85.5856C264.328 85.5856 256.993 76.3805 256.178 75.8917Z" stroke="#263238" stroke-linecap="round" stroke-linejoin="round"/>
<path d="M224.311 86.4814H226.756C228.06 86.4814 229.201 87.5405 229.201 88.9253V98.5378C229.201 99.8412 228.142 100.982 226.756 100.982H224.311C223.007 100.982 221.866 99.9227 221.866 98.5378V88.8438C221.866 87.5405 222.926 86.4814 224.311 86.4814Z" fill="white" stroke="#263238" stroke-linecap="round" stroke-linejoin="round"/>
<path d="M268.484 86.4814H270.929C272.233 86.4814 273.374 87.5405 273.374 88.9253V98.5378C273.374 99.8412 272.315 100.982 270.929 100.982H268.484C267.18 100.982 266.039 99.9227 266.039 98.5378V88.8438C266.121 87.5405 267.18 86.4814 268.484 86.4814Z" fill="white" stroke="#263238" stroke-linecap="round" stroke-linejoin="round"/>
<path d="M270.359 86.4815V78.5797C270.359 65.8716 260.09 55.6074 247.376 55.6074C234.662 55.6074 224.393 65.8716 224.393 78.5797V86.4815" stroke="#263238" stroke-width="2" stroke-linejoin="round"/>
<path d="M269.707 100.818C269.707 100.818 268.729 108.72 259.03 111.897" stroke="#263238" stroke-linecap="round" stroke-linejoin="round"/>
<path d="M258.704 111.572C259.112 112.794 257.971 114.179 256.096 114.831C254.222 115.482 252.429 114.994 252.021 113.853C251.614 112.713 252.755 111.246 254.548 110.595C256.341 109.943 258.297 110.432 258.704 111.572Z" stroke="#263238" stroke-linecap="round" stroke-linejoin="round"/>
<path d="M93.747 121.754L60.0059 137.802L69.7859 232.868H136.861L146.396 136.173L114.774 121.51L93.747 121.754Z" fill="#00B533" stroke="#263238" stroke-linecap="round" stroke-linejoin="round"/>
<path d="M107.195 150.755C107.825 150.755 108.336 150.244 108.336 149.614C108.336 148.984 107.825 148.474 107.195 148.474C106.565 148.474 106.054 148.984 106.054 149.614C106.054 150.244 106.565 150.755 107.195 150.755Z" fill="#263238"/>
<path d="M108.336 156.457C108.336 157.109 107.847 157.597 107.195 157.597C106.543 157.597 106.054 157.109 106.054 156.457C106.054 155.805 106.543 155.316 107.195 155.316C107.847 155.316 108.336 155.805 108.336 156.457Z" fill="#263238"/>
<path d="M118.931 126.56L109.722 136.824L105.81 146.844L101.571 136.743L92.6064 126.56V108.639H118.931V126.56Z" fill="white" stroke="#263238" stroke-linecap="round" stroke-linejoin="round"/>
<path d="M92.6064 116.622C96.111 120.858 101.327 123.383 106.869 123.302C111.27 123.302 115.508 121.754 118.85 118.903V108.639H92.6064V116.622Z" fill="#263238" stroke="#263238" stroke-linecap="round" stroke-linejoin="round"/>
<path d="M105.076 58.377H108.744C117.953 58.377 125.37 65.79 125.37 74.9952V101.633C125.37 110.838 117.953 118.251 108.744 118.251H105.076C95.8667 118.251 88.4502 110.838 88.4502 101.633V75.0766C88.4502 65.8714 95.8667 58.377 105.076 58.377Z" fill="white" stroke="#263238" stroke-linecap="round" stroke-linejoin="round"/>
<path d="M110.455 84.9336L109.884 98.049C109.884 99.1894 109.151 100.248 108.01 100.574C107.032 100.9 105.891 100.574 105.32 98.3748" stroke="#263238" stroke-linecap="round" stroke-linejoin="round"/>
<path d="M99.7783 103.182H114.448C114.448 103.182 111.922 108.803 106.869 108.803C101.816 108.803 99.7783 103.182 99.7783 103.182Z" fill="#263238" stroke="#263238" stroke-linecap="round" stroke-linejoin="round"/>
<path d="M100.756 105.218H113.144C113.633 104.566 114.041 103.914 114.367 103.263H99.7783C100.023 103.914 100.349 104.566 100.756 105.218Z" fill="white" stroke="#263238" stroke-linecap="round" stroke-linejoin="round"/>
<path d="M99.6152 90.8807C100.2 90.8807 100.675 89.7501 100.675 88.3554C100.675 86.9607 100.2 85.8301 99.6152 85.8301C99.03 85.8301 98.5557 86.9607 98.5557 88.3554C98.5557 89.7501 99.03 90.8807 99.6152 90.8807Z" fill="#263238"/>
<path d="M115.427 90.8807C116.012 90.8807 116.486 89.7501 116.486 88.3554C116.486 86.9607 116.012 85.8301 115.427 85.8301C114.842 85.8301 114.367 86.9607 114.367 88.3554C114.367 89.7501 114.842 90.8807 115.427 90.8807Z" fill="#263238"/>
<path d="M112.085 81.7569C112.085 81.7569 115.671 79.4759 119.746 83.1417" stroke="#263238" stroke-linecap="round" stroke-linejoin="round"/>
<path d="M106.869 58.377C96.6812 58.377 88.3682 66.6861 88.3682 76.8688V93.7314H88.5312H90.0797V86.8072C90.0797 86.8072 97.6592 86.8072 106.543 82.0009C115.426 77.1947 117.708 69.2928 117.708 69.2928C117.708 69.2928 119.664 78.8239 121.783 80.6161L123.902 82.4082V93.8943H125.451V76.8688C125.369 66.6861 117.138 58.377 106.869 58.377Z" fill="#263238" stroke="#263238" stroke-linecap="round" stroke-linejoin="round"/>
<path d="M84.945 84.8527H88.368V98.6197H84.945C83.0705 98.6197 81.6035 97.1534 81.6035 95.2798V88.1926C81.6035 86.319 83.152 84.7712 84.945 84.8527Z" fill="white" stroke="#263238" stroke-linecap="round" stroke-linejoin="round"/>
<path d="M128.629 98.5381H125.206V84.8525H128.629C130.504 84.8525 131.971 86.3189 131.971 88.1925V95.2797C131.971 97.0718 130.504 98.5381 128.629 98.5381Z" fill="white" stroke="#263238" stroke-linecap="round" stroke-linejoin="round"/>
<path d="M85.4346 84.8523V76.0544C85.4346 64.2424 95.0516 54.6299 106.869 54.6299C118.687 54.6299 128.304 64.2424 128.304 76.0544V84.8523" stroke="#263238" stroke-width="2" stroke-linejoin="round"/>
<path d="M128.303 98.5381C128.303 98.5381 127.244 106.684 117.301 110.024" stroke="#263238" stroke-linecap="round" stroke-linejoin="round"/>
<path d="M116.894 109.616C117.302 110.838 116.161 112.386 114.205 113.038C112.249 113.689 110.456 113.201 110.048 111.979C109.641 110.757 110.782 109.209 112.738 108.557C114.694 107.905 116.487 108.394 116.894 109.616Z" stroke="#263238" stroke-linecap="round" stroke-linejoin="round"/>
<path d="M60.0061 137.803L31.5625 198.003L43.2986 208.267L64.5701 181.629L60.0061 137.803Z" fill="#00B533" stroke="#263238" stroke-linecap="round" stroke-linejoin="round"/>
<path d="M57.7239 156.294L64.6515 179.592L56.4199 166.151" stroke="#263238" stroke-miterlimit="10"/>
<path d="M146.397 136.173L173.537 196.781L156.748 203.949L141.833 179.999L146.397 136.173Z" fill="#00B533" stroke="#263238" stroke-linecap="round" stroke-linejoin="round"/>
<path d="M46.9662 196.537L71.3348 219.346L64.5703 227.248L29.0361 205.253L33.1112 194.419" fill="#00B533"/>
<path d="M46.9662 196.537L71.3348 219.346L64.5703 227.248L29.0361 205.253L33.1112 194.419" stroke="#263238" stroke-linecap="round" stroke-linejoin="round"/>
<path d="M67.2602 217.961C68.2382 217.391 84.8642 213.481 85.1087 215.517C85.3532 217.554 90.3248 219.835 92.5253 219.835C94.7258 219.835 97.0893 218.043 97.4968 220.731C97.9043 223.419 95.4593 223.664 93.4218 223.908C91.3843 224.152 84.3752 221.871 84.3752 221.871C84.3752 221.871 77.8552 227.329 75.0842 228.633C72.3132 229.936 67.4232 229.529 65.5487 228.144C63.6741 226.759 61.3921 221.138 67.2602 217.961Z" fill="white" stroke="#263238" stroke-linecap="round" stroke-linejoin="round"/>
<path d="M82.6631 215.272C82.6631 215.272 89.0201 213.48 90.3241 214.132C91.6281 214.784 92.3616 228.388 92.3616 228.388C92.3616 228.388 91.7096 229.773 90.3241 228.388C88.9386 227.003 84.4561 216.82 84.4561 216.82" fill="white"/>
<path d="M82.6631 215.272C82.6631 215.272 89.0201 213.48 90.3241 214.132C91.6281 214.784 92.3616 228.388 92.3616 228.388C92.3616 228.388 91.7096 229.773 90.3241 228.388C88.9386 227.003 84.4561 216.82 84.4561 216.82" stroke="#263238" stroke-linecap="round" stroke-linejoin="round"/>
<path d="M79.4844 215.762C79.4844 215.762 86.0044 214.214 87.3899 216.658C88.7754 219.102 92.117 230.18 89.4274 230.669C86.7379 231.158 85.8414 227.492 85.8414 227.492L81.5219 219.59L78.5879 219.183" fill="white"/>
<path d="M79.4844 215.762C79.4844 215.762 86.0044 214.214 87.3899 216.658C88.7754 219.102 92.117 230.18 89.4274 230.669C86.7379 231.158 85.8414 227.492 85.8414 227.492L81.5219 219.59L78.5879 219.183" stroke="#263238" stroke-linecap="round" stroke-linejoin="round"/>
<path d="M77.2031 217.798C77.2031 217.798 80.3816 216.413 81.9301 217.554C83.4787 218.694 90.7322 230.181 89.4282 230.669C88.1242 231.158 84.8642 230.914 84.4567 230.018C84.0492 229.122 78.0996 221.464 78.0996 221.464" fill="white"/>
<path d="M77.2031 217.798C77.2031 217.798 80.3816 216.413 81.9301 217.554C83.4787 218.694 90.7322 230.181 89.4282 230.669C88.1242 231.158 84.8642 230.914 84.4567 230.018C84.0492 229.122 78.0996 221.464 78.0996 221.464" stroke="#263238" stroke-linecap="round" stroke-linejoin="round"/>
<path d="M74.9209 221.626C74.9209 221.626 77.8549 218.938 79.4849 219.834C81.1149 220.73 87.635 229.284 86.2495 230.261C84.8639 231.239 83.9674 230.261 82.6634 228.469C81.6854 227.247 80.5444 226.188 79.2404 225.292L76.5509 226.188" fill="white"/>
<path d="M74.9209 221.626C74.9209 221.626 77.8549 218.938 79.4849 219.834C81.1149 220.73 87.635 229.284 86.2495 230.261C84.8639 231.239 83.9674 230.261 82.6634 228.469C81.6854 227.247 80.5444 226.188 79.2404 225.292L76.5509 226.188" stroke="#263238" stroke-linecap="round" stroke-linejoin="round"/>
<path d="M152.673 190.753L138.41 220.976L147.62 225.782L174.678 197.107L166.854 188.554" fill="#00B533"/>
<path d="M152.673 190.753L138.41 220.976L147.62 225.782L174.678 197.107L166.854 188.554" stroke="#263238" stroke-linecap="round" stroke-linejoin="round"/>
<path d="M145.5 217.961C144.522 217.391 127.896 213.481 127.651 215.517C127.407 217.554 122.435 219.835 120.153 219.835C117.871 219.835 115.671 218.043 115.182 220.731C114.693 223.419 117.219 223.664 119.257 223.908C121.294 224.152 128.303 221.871 128.303 221.871C128.303 221.871 134.823 227.329 137.594 228.633C140.365 229.936 145.255 229.529 147.048 228.144C148.841 226.759 151.449 221.138 145.5 217.961Z" fill="white" stroke="#263238" stroke-linecap="round" stroke-linejoin="round"/>
<path d="M130.178 215.272C130.178 215.272 123.821 213.48 122.517 214.132C121.213 214.784 120.479 228.388 120.479 228.388C120.479 228.388 121.131 229.773 122.517 228.388C123.903 227.003 128.385 216.82 128.385 216.82" fill="white"/>
<path d="M130.178 215.272C130.178 215.272 123.821 213.48 122.517 214.132C121.213 214.784 120.479 228.388 120.479 228.388C120.479 228.388 121.131 229.773 122.517 228.388C123.903 227.003 128.385 216.82 128.385 216.82" stroke="#263238" stroke-linecap="round" stroke-linejoin="round"/>
<path d="M133.356 215.762C133.356 215.762 126.836 214.214 125.451 216.658C124.065 219.102 120.724 230.18 123.413 230.669C126.103 231.158 126.999 227.492 126.999 227.492L131.319 219.59L134.253 219.183" fill="white"/>
<path d="M133.356 215.762C133.356 215.762 126.836 214.214 125.451 216.658C124.065 219.102 120.724 230.18 123.413 230.669C126.103 231.158 126.999 227.492 126.999 227.492L131.319 219.59L134.253 219.183" stroke="#263238" stroke-linecap="round" stroke-linejoin="round"/>
<path d="M135.639 217.798C135.639 217.798 132.46 216.413 130.912 217.554C129.363 218.694 122.11 230.181 123.414 230.669C124.718 231.158 127.896 230.914 128.385 230.018C128.874 229.122 134.742 221.464 134.742 221.464" fill="white"/>
<path d="M135.639 217.798C135.639 217.798 132.46 216.413 130.912 217.554C129.363 218.694 122.11 230.181 123.414 230.669C124.718 231.158 127.896 230.914 128.385 230.018C128.874 229.122 134.742 221.464 134.742 221.464" stroke="#263238" stroke-linecap="round" stroke-linejoin="round"/>
<path d="M137.839 221.626C137.839 221.626 134.905 218.938 133.275 219.834C131.645 220.73 125.125 229.284 126.51 230.261C127.896 231.239 128.792 230.261 130.096 228.469C131.074 227.247 132.215 226.188 133.519 225.292L136.209 226.188" fill="white"/>
<path d="M137.839 221.626C137.839 221.626 134.905 218.938 133.275 219.834C131.645 220.73 125.125 229.284 126.51 230.261C127.896 231.239 128.792 230.261 130.096 228.469C131.074 227.247 132.215 226.188 133.519 225.292L136.209 226.188" stroke="#263238" stroke-linecap="round" stroke-linejoin="round"/>
<path d="M296.52 230.425H197.823V234.416H296.52V230.425Z" fill="white" stroke="#263238" stroke-linecap="round" stroke-linejoin="round"/>
<path d="M311.68 230.425H225.615V234.416H311.68V230.425Z" fill="white" stroke="#263238" stroke-linecap="round" stroke-linejoin="round"/>
<path d="M313.391 223.419H231.075L239.959 160.53H322.274L313.391 223.419Z" fill="white" stroke="#263238" stroke-linecap="round" stroke-linejoin="round"/>
<path d="M316.814 223.419H234.417L243.301 160.53H325.697L316.814 223.419Z" fill="#263238" stroke="#263238" stroke-linecap="round" stroke-linejoin="round"/>
<path d="M291.549 194.174L299.78 234.416H278.509L270.277 194.174H291.549ZM277.123 206.149C277.205 206.475 277.531 206.719 277.857 206.719L289.919 206.638C290.326 206.638 290.652 206.312 290.652 205.904C290.652 205.823 290.652 205.823 290.652 205.741L289.593 201.261C289.511 200.935 289.185 200.691 288.859 200.691L276.797 200.772C276.39 200.772 276.064 201.098 276.064 201.505C276.064 201.587 276.064 201.587 276.064 201.668L277.123 206.149Z" fill="white" stroke="#263238" stroke-linecap="round" stroke-linejoin="round"/>
<path d="M150.471 230.425H51.7744V234.416H150.471V230.425Z" fill="white" stroke="#263238" stroke-linecap="round" stroke-linejoin="round"/>
<path d="M165.712 230.425H79.6475V234.416H165.712V230.425Z" fill="white" stroke="#263238" stroke-linecap="round" stroke-linejoin="round"/>
<path d="M167.342 223.419H85.0264L93.9099 160.53H176.225L167.342 223.419Z" fill="white" stroke="#263238" stroke-linecap="round" stroke-linejoin="round"/>
<path d="M170.765 223.419H88.4492L97.2513 160.53H179.648L170.765 223.419Z" fill="#263238" stroke="#263238" stroke-linecap="round" stroke-linejoin="round"/>
<path d="M145.5 194.174L153.732 234.416H132.46L124.229 194.174H145.5ZM131.075 206.149C131.156 206.475 131.482 206.719 131.808 206.719L143.87 206.638C144.278 206.638 144.604 206.312 144.604 205.904C144.604 205.823 144.604 205.823 144.604 205.741L143.544 201.261C143.463 200.935 143.137 200.691 142.811 200.691L130.749 200.772C130.341 200.772 130.015 201.098 130.015 201.505C130.015 201.587 130.015 201.587 130.015 201.668L131.075 206.149Z" fill="white" stroke="#263238" stroke-linecap="round" stroke-linejoin="round"/>
<path d="M352.185 234.416H1V238.326H352.185V234.416Z" fill="#263238" stroke="#263238" stroke-linecap="round" stroke-linejoin="round"/>
</svg>
