<svg width="525" height="486" viewBox="0 0 525 486" fill="none" xmlns="http://www.w3.org/2000/svg">
<g opacity="0.08">
<path opacity="0.08" d="M3.15098 296.155C3.15098 296.155 19.9417 386.687 105.104 435.746C190.251 484.805 296.103 473.102 382.143 465.876C468.182 458.649 526.237 400.434 524.986 326.025C523.734 251.616 455.406 240.143 407.451 162.523C359.496 84.9324 358.474 57.1639 276.003 17.5192C193.517 -22.1255 81.4355 27.0345 33.495 123.829C-14.4454 220.623 3.15098 296.155 3.15098 296.155Z" fill="#00B533"/>
<path opacity="0.7" d="M3.15098 296.155C3.15098 296.155 19.9417 386.687 105.104 435.746C190.251 484.805 296.103 473.102 382.143 465.876C468.182 458.649 526.237 400.434 524.986 326.025C523.734 251.616 455.406 240.143 407.451 162.523C359.496 84.9324 358.474 57.1639 276.003 17.5192C193.517 -22.1255 81.4355 27.0345 33.495 123.829C-14.4454 220.623 3.15098 296.155 3.15098 296.155Z" fill="#00B533"/>
</g>
<path d="M355.813 361.697H281.168C269.442 361.682 259.946 352.181 259.932 340.449V83.8815C259.946 72.1493 269.442 62.6628 281.168 62.6484H355.813V64.088H281.168C270.248 64.1024 261.385 72.9555 261.37 83.8815V340.449C261.385 351.39 270.233 360.243 281.168 360.257H355.813V361.697Z" fill="#2E353A"/>
<path d="M433.508 361.697H307.858C295.139 361.697 284.837 351.39 284.837 338.664V85.6809C284.837 72.9555 295.139 62.6484 307.858 62.6484H433.508C446.226 62.6484 456.528 72.9555 456.528 85.6809V338.664C456.528 351.39 446.212 361.697 433.508 361.697ZM307.858 64.088C295.945 64.088 286.276 73.7616 286.276 85.6809V338.664C286.276 350.583 295.945 360.257 307.858 360.257H433.508C445.421 360.257 455.089 350.583 455.089 338.664V85.6809C455.089 73.7616 445.421 64.088 433.508 64.088H307.858Z" fill="#2E353A"/>
<path d="M431.249 119.495H309.138C305.34 119.668 302.132 116.731 301.959 112.931C301.786 109.131 304.721 105.921 308.52 105.748C308.736 105.733 308.937 105.733 309.153 105.748H431.263C435.061 105.575 438.27 108.512 438.443 112.312C438.615 116.112 435.68 119.323 431.882 119.495C431.666 119.51 431.45 119.51 431.249 119.495ZM309.196 107.187C306.203 107.029 303.642 109.347 303.484 112.341C303.326 115.335 305.642 117.898 308.635 118.056C308.822 118.07 309.009 118.07 309.196 118.056H431.249C434.241 118.214 436.802 115.897 436.961 112.902C437.119 109.908 434.802 107.346 431.81 107.187C431.623 107.173 431.436 107.173 431.249 107.187H309.196Z" fill="#2E353A"/>
<path d="M431.249 322.455H309.138C305.34 322.455 302.261 319.374 302.261 315.574C302.261 311.774 305.34 308.693 309.138 308.693C309.138 308.693 309.138 308.693 309.153 308.693H431.263C435.061 308.693 438.14 311.774 438.14 315.574C438.14 319.374 435.047 322.455 431.249 322.455ZM309.196 310.133C306.189 310.133 303.757 312.565 303.757 315.574C303.757 318.583 306.189 321.015 309.196 321.015C309.196 321.015 309.196 321.015 309.21 321.015H431.263C434.27 321.015 436.702 318.583 436.702 315.574C436.702 312.565 434.27 310.133 431.263 310.133C431.263 310.133 431.263 310.133 431.249 310.133H309.196Z" fill="#2E353A"/>
<path d="M394.272 144.126H309.138C305.34 144.298 302.132 141.362 301.959 137.561C301.786 133.761 304.721 130.551 308.52 130.378C308.736 130.364 308.937 130.364 309.153 130.378H394.286C398.084 130.205 401.293 133.142 401.466 136.942C401.638 140.743 398.703 143.953 394.905 144.126C394.689 144.14 394.473 144.14 394.272 144.126ZM309.138 131.818C306.146 131.659 303.585 133.977 303.426 136.971C303.268 139.966 305.585 142.528 308.577 142.686C308.764 142.701 308.951 142.701 309.138 142.686H394.272C397.264 142.845 399.825 140.527 399.984 137.533C400.142 134.538 397.826 131.976 394.833 131.818C394.646 131.803 394.459 131.803 394.272 131.818H309.138Z" fill="#2E353A"/>
<path d="M419.911 147.523C425.577 147.523 430.17 142.928 430.17 137.259C430.17 131.591 425.577 126.995 419.911 126.995C414.245 126.995 409.652 131.591 409.652 137.259C409.652 142.928 414.245 147.523 419.911 147.523Z" fill="#00B533"/>
<path d="M419.911 148.243C413.854 148.243 408.933 143.32 408.933 137.259C408.933 131.199 413.854 126.276 419.911 126.276C425.968 126.276 430.889 131.199 430.889 137.259C430.874 143.32 425.968 148.228 419.911 148.243ZM419.911 127.715C414.645 127.715 410.372 131.991 410.372 137.259C410.372 142.528 414.645 146.803 419.911 146.803C425.177 146.803 429.45 142.528 429.45 137.259C429.464 131.976 425.191 127.701 419.911 127.686V127.715Z" fill="#2E353A"/>
<path d="M319.901 200.57C311.282 200.57 304.304 193.588 304.304 184.965C304.304 176.343 311.282 169.361 319.901 169.361C328.519 169.361 335.497 176.343 335.497 184.965V184.98C335.483 193.588 328.505 200.57 319.901 200.57ZM319.901 170.815C312.088 170.815 305.743 177.163 305.743 184.98C305.743 192.796 312.088 199.145 319.901 199.145C327.713 199.145 334.058 192.796 334.058 184.98C334.03 177.177 327.699 170.872 319.901 170.872V170.815Z" fill="#2E353A"/>
<path d="M370.675 200.57C362.057 200.57 355.079 193.588 355.079 184.965C355.079 176.343 362.057 169.361 370.675 169.361C379.294 169.361 386.272 176.343 386.272 184.965V184.98C386.257 193.588 379.279 200.555 370.675 200.57ZM370.675 170.815C362.863 170.815 356.518 177.163 356.518 184.98C356.518 192.796 362.863 199.145 370.675 199.145C378.488 199.145 384.833 192.796 384.833 184.98C384.79 177.177 378.474 170.887 370.675 170.872V170.815Z" fill="#2E353A"/>
<path d="M421.451 200.57C412.832 200.599 405.84 193.631 405.811 185.009C405.782 176.386 412.746 169.39 421.364 169.361C429.983 169.332 436.975 176.299 437.004 184.922C437.004 184.937 437.004 184.965 437.004 184.98C436.989 193.574 430.04 200.541 421.451 200.57ZM421.451 170.815C413.638 170.786 407.278 177.12 407.25 184.937C407.221 192.753 413.552 199.116 421.364 199.145C429.177 199.174 435.536 192.84 435.565 185.023C435.565 185.009 435.565 184.994 435.565 184.98C435.522 177.206 429.22 170.901 421.451 170.872V170.815Z" fill="#2E353A"/>
<path d="M319.901 239.581C311.282 239.581 304.304 232.599 304.304 223.977C304.304 215.354 311.282 208.372 319.901 208.372C328.519 208.372 335.497 215.354 335.497 223.977C335.483 232.585 328.505 239.567 319.901 239.581ZM319.901 209.812C312.088 209.812 305.743 216.16 305.743 223.977C305.743 231.793 312.088 238.142 319.901 238.142C327.713 238.142 334.058 231.793 334.058 223.977C334.058 216.146 327.713 209.812 319.901 209.812Z" fill="#2E353A"/>
<path d="M370.675 239.581C362.057 239.581 355.079 232.599 355.079 223.977C355.079 215.354 362.057 208.372 370.675 208.372C379.294 208.372 386.272 215.354 386.272 223.977C386.257 232.585 379.279 239.567 370.675 239.581ZM370.675 209.812C362.863 209.812 356.518 216.16 356.518 223.977C356.518 231.793 362.863 238.142 370.675 238.142C378.488 238.142 384.833 231.793 384.833 223.977C384.819 216.16 378.488 209.812 370.675 209.812Z" fill="#2E353A"/>
<path d="M421.451 239.581C412.832 239.61 405.84 232.643 405.811 224.02C405.782 215.397 412.746 208.401 421.364 208.372C429.983 208.343 436.975 215.311 437.004 223.933C437.004 223.948 437.004 223.962 437.004 223.977C436.989 232.571 430.04 239.538 421.451 239.581ZM421.451 209.812C413.638 209.812 407.293 216.16 407.293 223.977C407.293 231.793 413.638 238.142 421.451 238.142C429.263 238.142 435.608 231.793 435.608 223.977C435.594 216.16 429.263 209.812 421.451 209.812Z" fill="#2E353A"/>
<path d="M319.901 278.578C311.282 278.578 304.304 271.596 304.304 262.974C304.304 254.351 311.282 247.369 319.901 247.369C328.519 247.369 335.497 254.351 335.497 262.974C335.497 262.988 335.497 262.988 335.497 263.002C335.468 271.611 328.49 278.564 319.901 278.578ZM319.901 248.809C312.088 248.809 305.743 255.157 305.743 262.974C305.743 270.79 312.088 277.139 319.901 277.139C327.713 277.139 334.058 270.79 334.058 262.974C334.058 255.142 327.713 248.809 319.901 248.809Z" fill="#2E353A"/>
<path d="M370.675 278.578C362.057 278.578 355.079 271.596 355.079 262.974C355.079 254.351 362.057 247.369 370.675 247.369C379.294 247.369 386.272 254.351 386.272 262.974C386.272 262.988 386.272 262.988 386.272 263.002C386.243 271.596 379.265 278.564 370.675 278.578ZM370.675 248.809C362.863 248.809 356.518 255.157 356.518 262.974C356.518 270.79 362.863 277.139 370.675 277.139C378.488 277.139 384.833 270.79 384.833 262.974C384.819 255.157 378.488 248.809 370.675 248.809Z" fill="#2E353A"/>
<path d="M421.451 278.578C412.832 278.607 405.84 271.639 405.811 263.017C405.782 254.394 412.746 247.398 421.364 247.369C429.983 247.34 436.975 254.308 437.004 262.93C437.004 262.959 437.004 262.973 437.004 263.002C436.975 271.582 430.026 278.535 421.451 278.578ZM421.451 248.809C413.638 248.78 407.278 255.114 407.25 262.93C407.221 270.747 413.552 277.11 421.364 277.138C429.177 277.167 435.536 270.833 435.565 263.017V263.002C435.565 255.186 429.263 248.837 421.451 248.809Z" fill="#2E353A"/>
<path d="M162.263 63.4485L20.8643 193.118L21.8364 194.179L163.235 64.5097L162.263 63.4485Z" fill="#2E353A"/>
<path d="M108.778 128.711L97.4814 139.07L98.4536 140.131L109.75 129.772L108.778 128.711Z" fill="#2E353A"/>
<path d="M162.256 79.6611L121.728 116.828L122.7 117.889L163.229 80.7223L162.256 79.6611Z" fill="#2E353A"/>
<path d="M162.296 189.866L73.8726 270.851L74.844 271.913L163.267 190.928L162.296 189.866Z" fill="#2E353A"/>
<path d="M128.849 230.613L121.785 237.091L122.757 238.152L129.821 231.674L128.849 230.613Z" fill="#2E353A"/>
<path d="M162.279 199.978L136.95 223.206L137.923 224.267L163.252 201.039L162.279 199.978Z" fill="#2E353A"/>
<path d="M77.7525 464.335C72.3426 464.349 66.9472 463.86 61.638 462.896C44.7179 459.743 30.8479 450.789 23.5677 438.323C11.6401 417.853 19.2513 391.84 31.9702 375.127C48.171 353.937 72.5872 341.644 94.3417 332.402C136.067 314.696 180.266 303.324 223.056 292.326C235.286 289.187 247.933 285.934 260.335 282.58C266.522 280.91 272.838 279.269 279.226 277.614C324.505 265.853 375.826 252.523 409.768 219.053C434.342 194.826 452.572 166.655 462.442 137.605C466.744 125.498 469.132 112.816 469.549 99.9755C470.024 86.1848 469.031 72.3797 466.585 58.8049L465.65 58.0995C444.874 42.3942 421.724 32.8214 402.142 31.8281C370.949 30.2734 308.952 41.3146 275.73 77.8355L274.291 79.419C260.105 97.082 247.674 116.098 237.185 136.18C236.523 137.634 234.825 138.267 233.372 137.619C231.919 136.971 231.286 135.258 231.933 133.804C231.962 133.747 231.976 133.704 232.005 133.646C237.66 122.634 243.947 111.952 250.839 101.674C250.422 100.724 250.537 99.63 251.141 98.795C256.58 91.3095 262.392 84.0974 268.565 77.2021C270.018 75.3739 271.5 73.5313 273.011 71.7031C297.024 42.6678 335.627 6.9242 383.121 1.16608C413.58 -2.49033 435.81 2.44726 451.061 16.2524C461.132 25.379 467.981 38.2484 471.765 55.6235C494.786 74.2079 503.792 97.701 498.483 125.498C490.498 167.245 468.571 198.339 442.845 231.75C374.431 320.584 299.945 385.362 221.502 423.913C185.187 441.792 146.512 454.388 106.643 461.341C97.1186 463.169 87.4499 464.177 77.7525 464.335ZM473.42 64.6638C475.017 76.4103 475.635 88.2721 475.304 100.119C474.873 113.55 472.384 126.823 467.895 139.491C457.722 169.39 439.018 198.324 413.811 223.185C378.762 257.734 326.649 271.265 280.679 283.213C274.306 284.869 268.004 286.51 261.846 288.165C249.4 291.534 236.739 294.787 224.437 297.94C181.863 308.88 137.836 320.195 96.5431 337.728C75.4936 346.682 51.9406 358.53 36.5024 378.654C24.8914 393.841 17.9132 417.291 28.5027 435.444C34.9341 446.471 47.3796 454.417 62.6452 457.267C77.0331 459.93 91.7807 458.059 105.622 455.655C144.958 448.803 183.101 436.379 218.927 418.745C295.528 381.044 371.381 315.185 438.299 228.209C463.564 195.388 485.103 164.87 492.843 124.39C497.304 101.07 490.771 81.0312 473.42 64.6638ZM401.408 5.72939C395.524 5.75818 389.653 6.13246 383.826 6.85222C351.209 10.7677 322.62 29.5536 299.556 51.6504C334.087 31.353 377.639 24.8464 402.43 26.1131C427.681 27.3943 450.744 40.5085 464.485 50.1533C460.801 37.3559 455.089 27.6103 447.219 20.4846C436.299 10.6094 421.177 5.72939 401.408 5.72939Z" fill="#2E353A"/>
<path d="M149.936 200.886L189.431 478.932C190.021 482.977 193.762 485.784 197.805 485.223L365.971 461.298C370.014 460.722 372.834 456.965 372.258 452.919L332.749 174.889C332.174 170.843 328.433 168.022 324.39 168.598L156.21 192.465C152.167 193.027 149.361 196.769 149.922 200.8C149.922 200.829 149.922 200.858 149.936 200.886ZM259.932 196.078L225.761 200.93C222.696 201.361 219.862 199.231 219.43 196.165C218.998 193.099 221.128 190.263 224.192 189.831L258.349 184.965C261.399 184.461 264.291 186.52 264.809 189.586C265.313 192.638 263.255 195.531 260.191 196.05C260.105 196.05 260.018 196.064 259.932 196.078Z" fill="white"/>
<path d="M196.726 486C192.683 485.986 189.273 483.02 188.697 479.018L149.246 200.987C148.627 196.554 151.706 192.451 156.138 191.803L324.318 167.893C328.749 167.274 332.864 170.354 333.497 174.788L372.992 452.805C373.639 457.224 370.575 461.327 366.158 461.974C366.143 461.974 366.115 461.974 366.1 461.989L197.906 485.914C197.517 485.971 197.114 486 196.726 486ZM325.397 169.303C325.08 169.289 324.778 169.289 324.462 169.303L156.31 193.228C152.656 193.747 150.123 197.129 150.641 200.786L190.151 478.817C190.683 482.473 194.05 485.007 197.704 484.489L365.87 460.564C369.51 460.06 372.042 456.706 371.539 453.064C371.539 453.049 371.539 453.035 371.539 453.02L332.044 174.989C331.569 171.693 328.749 169.26 325.426 169.246L325.397 169.303ZM224.941 201.765C221.444 201.722 218.639 198.857 218.682 195.359C218.711 192.249 220.998 189.63 224.063 189.169L258.22 184.318C259.874 184.073 261.572 184.505 262.91 185.512C265.701 187.6 266.277 191.558 264.191 194.351C264.191 194.366 264.176 194.366 264.176 194.38C263.169 195.704 261.673 196.568 260.033 196.784L225.861 201.65C225.559 201.693 225.271 201.707 224.969 201.707L224.941 201.765ZM259.126 185.685C258.896 185.671 258.651 185.671 258.421 185.685L224.264 190.536C221.588 190.939 219.747 193.43 220.135 196.107C220.538 198.785 223.027 200.628 225.703 200.224L259.831 195.344C261.112 195.172 262.277 194.481 263.054 193.444C263.831 192.408 264.162 191.098 263.989 189.817C263.644 187.413 261.586 185.628 259.155 185.613L259.126 185.685Z" fill="#2E353A"/>
<path d="M327.117 200.465L162.385 223.889L198.01 474.685L362.742 451.261L327.117 200.465Z" fill="#00B533"/>
<path d="M198.049 475.42C197.69 475.42 197.388 475.146 197.344 474.8L161.706 224.005C161.677 223.818 161.734 223.617 161.849 223.458C161.965 223.314 162.123 223.214 162.31 223.185L327.066 199.749C327.253 199.72 327.44 199.778 327.598 199.893C327.756 200.008 327.857 200.181 327.871 200.368L363.51 451.163C363.568 451.552 363.294 451.926 362.906 451.984L198.165 475.42H198.049ZM163.231 224.509L198.668 473.894L361.985 450.66L326.548 201.275L163.231 224.509Z" fill="#2E353A"/>
<path d="M216.869 126.463L226.207 192.192C226.394 193.574 227.674 194.553 229.055 194.351C229.07 194.351 229.07 194.351 229.084 194.351L254.795 190.695C256.177 190.508 257.155 189.226 256.954 187.844C256.954 187.83 256.954 187.83 256.954 187.816L247.616 122.087L216.869 126.463ZM234.652 141.232C231.66 141.65 228.897 139.577 228.48 136.583C228.063 133.589 230.135 130.825 233.127 130.407C236.12 129.99 238.882 132.063 239.3 135.057C239.717 138.022 237.674 140.786 234.71 141.247L234.652 141.232Z" fill="white"/>
<path d="M228.782 195.1C227.142 195.085 225.761 193.862 225.559 192.221L216.207 126.492C216.164 126.103 216.437 125.743 216.826 125.671L247.573 121.353C247.76 121.338 247.947 121.381 248.105 121.496C248.263 121.612 248.364 121.784 248.393 121.972L257.731 187.701C257.99 189.486 256.752 191.141 254.968 191.4C254.968 191.4 254.968 191.4 254.954 191.4L229.243 195.057L228.782 195.1ZM217.732 127.067L226.94 192.091C227.084 193.084 228.005 193.79 228.998 193.646L254.709 189.989C255.184 189.917 255.63 189.658 255.918 189.27C256.205 188.881 256.335 188.391 256.263 187.916L247.084 122.907L217.732 127.067ZM233.933 141.995C230.537 141.751 227.991 138.8 228.235 135.417C228.48 132.019 231.43 129.471 234.811 129.716C238.192 129.961 240.753 132.912 240.508 136.295C240.292 139.347 237.861 141.779 234.811 141.995C234.509 142.01 234.221 142.01 233.933 141.995ZM233.947 131.069H233.271C232.019 131.242 230.897 131.904 230.149 132.912C229.386 133.92 229.07 135.186 229.243 136.439C229.415 137.691 230.077 138.814 231.084 139.563C232.091 140.326 233.357 140.642 234.609 140.469C237.199 140.095 239.012 137.691 238.638 135.086C238.465 133.848 237.803 132.725 236.796 131.976C235.962 131.372 234.969 131.055 233.947 131.069Z" fill="#2E353A"/>
<path d="M220.912 154.562L251.673 150.186L256.997 187.614C257.213 189.126 256.162 190.522 254.651 190.738L229.372 194.337C227.861 194.553 226.466 193.502 226.25 191.99L220.912 154.562Z" fill="white"/>
<path d="M228.969 195.071C227.243 195.056 225.775 193.79 225.516 192.077L220.207 154.649C220.178 154.462 220.221 154.274 220.336 154.116C220.451 153.958 220.624 153.857 220.811 153.828L251.572 149.51C251.961 149.466 252.321 149.74 252.378 150.129L257.702 187.556C257.961 189.457 256.637 191.227 254.738 191.501L229.458 195.1L228.969 195.071ZM221.775 155.153L226.94 191.875C227.099 192.998 228.135 193.761 229.257 193.602L254.536 190.018C255.659 189.86 256.436 188.823 256.277 187.715V187.7L251.055 150.978L221.775 155.153Z" fill="#2E353A"/>
<path d="M243.486 163.099C243.055 160.033 240.206 157.888 237.141 158.334C234.077 158.766 231.933 161.616 232.379 164.682C232.81 167.749 235.659 169.894 238.724 169.447C241.789 169.001 243.918 166.165 243.486 163.099Z" fill="white"/>
<path d="M237.918 170.225C236.552 170.225 235.228 169.778 234.134 168.958C231.329 166.87 230.753 162.912 232.825 160.119C233.832 158.766 235.343 157.873 237.012 157.629C240.451 157.096 243.674 159.471 244.192 162.912C244.192 162.94 244.206 162.969 244.206 162.998C244.724 166.453 242.335 169.677 238.868 170.196C238.854 170.196 238.854 170.196 238.839 170.196C238.537 170.225 238.221 170.239 237.918 170.225ZM237.918 158.996C237.688 158.967 237.444 158.967 237.213 158.996C234.552 159.356 232.681 161.818 233.041 164.495C233.214 165.791 233.919 166.971 234.969 167.749C237.127 169.361 240.206 168.915 241.818 166.755C242.594 165.719 242.925 164.423 242.738 163.142C242.407 160.738 240.35 158.939 237.918 158.939V158.996Z" fill="#2E353A"/>
<path d="M239.99 163.675C239.789 162.538 238.695 161.789 237.573 161.991C236.508 162.178 235.76 163.171 235.861 164.251C235.976 165.402 236.998 166.237 238.149 166.122C239.3 166.007 240.134 164.985 240.019 163.833C240.005 163.776 239.99 163.732 239.99 163.675Z" fill="white"/>
<path d="M237.933 166.698C236.35 166.741 235.012 165.489 234.969 163.905C234.926 162.322 236.177 160.983 237.76 160.94C239.256 160.897 240.537 162.005 240.71 163.502C240.81 164.236 240.609 164.985 240.177 165.575C239.731 166.18 239.055 166.568 238.321 166.669L237.933 166.698ZM237.933 162.523H237.731C237.012 162.667 236.508 163.329 236.58 164.063C236.724 164.783 237.386 165.287 238.12 165.229C238.479 165.172 238.796 164.985 239.026 164.697C239.242 164.409 239.328 164.049 239.285 163.689C239.156 163.027 238.595 162.552 237.933 162.523Z" fill="#2E353A"/>
<path d="M232.897 128.478C228.84 129.054 226.02 132.797 226.595 136.856C227.171 140.916 230.911 143.737 234.969 143.161C239.026 142.586 241.846 138.843 241.271 134.783C241.271 134.783 241.271 134.783 241.271 134.769C240.695 130.724 236.954 127.902 232.911 128.478C232.911 128.478 232.897 128.478 232.897 128.478ZM234.71 141.232C231.717 141.65 228.955 139.577 228.537 136.583C228.12 133.588 230.192 130.825 233.185 130.407C236.177 129.99 238.94 132.063 239.357 135.057C239.774 138.037 237.688 140.801 234.71 141.232Z" fill="white"/>
<path d="M233.933 143.953C229.444 143.953 225.804 140.311 225.804 135.82C225.804 134.049 226.379 132.336 227.444 130.925C228.725 129.198 230.653 128.046 232.796 127.758C234.926 127.456 237.098 128.017 238.825 129.313C240.552 130.594 241.703 132.523 241.99 134.668C242.609 139.116 239.53 143.233 235.084 143.867C234.696 143.924 234.322 143.953 233.933 143.953ZM232.998 129.126C229.329 129.644 226.782 133.041 227.286 136.698C227.789 140.354 231.199 142.917 234.854 142.413C238.523 141.894 241.069 138.497 240.566 134.841C240.321 133.07 239.372 131.487 237.962 130.407C236.537 129.327 234.753 128.867 232.998 129.126ZM233.933 141.938C230.523 141.894 227.775 139.087 227.818 135.676C227.861 132.653 230.077 130.09 233.07 129.63C236.465 129.255 239.516 131.717 239.89 135.114C240.249 138.353 238.019 141.319 234.811 141.88C234.523 141.938 234.235 141.981 233.933 141.995V141.938ZM233.947 131.012C233.717 130.997 233.501 130.997 233.271 131.012C232.02 131.184 230.897 131.847 230.149 132.854C229.387 133.862 229.07 135.129 229.243 136.381C229.415 137.633 230.077 138.756 231.084 139.505C233.171 141.088 236.149 140.685 237.731 138.584C239.314 136.482 238.911 133.516 236.811 131.933C235.991 131.314 234.983 130.968 233.947 130.968V131.012Z" fill="#2E353A"/>
<path d="M301.927 214.777L190.61 230.605L213.792 393.798L325.109 377.969L301.927 214.777Z" fill="white"/>
<path d="M213.819 394.532C213.66 394.532 213.502 394.489 213.373 394.388C213.229 394.273 213.128 394.101 213.099 393.913L189.906 230.714C189.848 230.311 190.136 229.951 190.525 229.893L301.844 214.058C302.247 214.001 302.606 214.289 302.664 214.677L325.857 377.877C325.872 378.064 325.828 378.251 325.713 378.41C325.598 378.568 325.426 378.669 325.239 378.698L213.919 394.532H213.819ZM191.431 231.218L214.452 393.006L324.361 377.373L301.34 215.599L191.431 231.218Z" fill="#2E353A"/>
<path d="M213.819 393.812C235.055 390.933 302.088 380.857 325.138 377.978C323.239 364.648 320.735 347.316 320.433 339.009C317.426 336.85 312.174 334.993 304.606 330.991C292.736 324.729 273.471 311.572 273.471 311.572L265.644 312.407L265.572 311.946L259.313 313.069L252.968 313.731V314.192L245.213 315.631C245.213 315.631 230.379 333.64 220.754 342.983C214.394 349.129 210.423 351.936 208.222 354.931C208.394 355.435 211.66 378.409 213.819 393.812Z" fill="white"/>
<path d="M213.804 394.36C213.531 394.36 213.301 394.158 213.272 393.884C211.099 378.352 207.876 355.593 207.747 355.017C207.718 354.859 207.747 354.7 207.848 354.585C209.632 352.412 211.617 350.439 213.804 348.669C215.603 347.071 217.847 345.084 220.437 342.565C229.962 333.381 244.738 315.473 244.896 315.286C244.983 315.185 245.098 315.113 245.227 315.099L252.421 313.803C252.407 313.674 252.45 313.544 252.536 313.444C252.623 313.328 252.752 313.256 252.896 313.242L259.241 312.58L265.471 311.457C265.615 311.428 265.759 311.457 265.874 311.543C265.989 311.615 266.061 311.73 266.09 311.86L273.399 311.083C273.528 311.068 273.643 311.097 273.759 311.169C273.96 311.313 293.139 324.384 304.836 330.56C308.131 332.301 310.937 333.611 313.469 334.763C316.016 335.828 318.462 337.124 320.778 338.621C320.922 338.707 321.008 338.866 321.008 339.038C321.282 346.913 323.584 363.035 325.425 375.991L325.699 377.949C325.728 378.093 325.684 378.237 325.598 378.352C325.512 378.467 325.382 378.539 325.238 378.568C310.707 380.339 279.37 384.916 251.716 388.947C235.645 391.293 221.775 393.266 213.919 394.388L213.804 394.36ZM208.84 355.003C209.258 357.637 212.365 379.604 214.265 393.208C222.207 392.114 235.846 390.127 251.529 387.838C278.866 383.851 309.757 379.345 324.533 377.517L324.332 376.078C322.505 363.237 320.231 347.287 319.915 339.269C317.699 337.901 315.383 336.692 312.98 335.67C310.505 334.518 307.685 333.194 304.347 331.438C293.182 325.55 275.241 313.4 273.327 312.105L265.701 312.911C265.442 312.925 265.212 312.781 265.126 312.537L259.371 313.573L253.544 314.192C253.544 314.451 253.357 314.667 253.098 314.696L245.544 316.049C244.105 317.834 230.235 334.489 221.084 343.271C218.48 345.804 216.221 347.805 214.409 349.403C212.38 351.102 210.524 352.973 208.84 355.003Z" fill="#2E353A"/>
<path d="M320.462 339.009C317.527 337.196 314.448 335.627 311.268 334.288L310.477 333.914L309.426 333.41L307.988 332.704L307.139 332.272C306.333 331.869 305.513 331.452 304.65 330.991C292.78 324.729 273.514 311.572 273.514 311.572L265.687 312.407L265.615 311.946L259.357 313.069L253.012 313.731V314.192L245.256 315.631C245.256 315.631 230.423 333.64 220.797 342.983C220.15 343.616 219.531 344.206 218.912 344.782C213.646 349.691 210.279 352.239 208.265 354.931C208.265 355.132 208.697 357.882 209.301 362.028L320.951 346.193C320.692 343.357 320.462 340.938 320.462 339.009Z" fill="#00B533"/>
<path d="M322.375 358.011L210.999 373.846C211.574 377.949 212.193 382.296 212.783 386.456L324.087 370.622C323.498 366.447 322.908 362.128 322.375 358.011Z" fill="#00B533"/>
<path d="M263.025 341.831L267.198 368.491L273.874 367.541L267.428 340.823C267.428 340.823 263.557 340.248 263.025 341.831Z" fill="white"/>
<path d="M267.226 369.024C266.967 369.024 266.737 368.837 266.694 368.578L262.522 341.917C262.507 341.831 262.507 341.745 262.522 341.658C263.169 339.7 267.068 340.219 267.514 340.291C267.73 340.319 267.903 340.478 267.946 340.694L274.42 367.411C274.463 367.555 274.435 367.714 274.348 367.843C274.262 367.973 274.133 368.059 273.974 368.074L267.298 369.024H267.226ZM263.615 341.903L267.672 367.815L273.241 367.023L267.025 341.255C265.687 341.183 263.96 341.27 263.586 341.903H263.615V341.903Z" fill="#2E353A"/>
<path d="M267.529 349.101C267.442 348.525 266.91 348.107 266.32 348.194C265.745 348.28 265.342 348.813 265.414 349.403C265.486 349.993 266.032 350.382 266.622 350.31C267.198 350.209 267.601 349.676 267.529 349.101Z" fill="white"/>
<path d="M266.479 350.814C266.133 350.814 265.788 350.699 265.515 350.483C265.169 350.223 264.953 349.849 264.881 349.432C264.824 349.014 264.939 348.582 265.198 348.237C265.716 347.517 266.709 347.359 267.428 347.877C267.788 348.136 268.018 348.525 268.076 348.971C268.148 349.389 268.032 349.82 267.773 350.166C267.514 350.511 267.14 350.727 266.723 350.785L266.479 350.814ZM266.479 348.669H266.407C266.263 348.683 266.148 348.755 266.061 348.87C265.975 348.985 265.932 349.115 265.961 349.259C265.975 349.403 266.047 349.518 266.162 349.604C266.277 349.691 266.407 349.72 266.55 349.705C266.694 349.691 266.809 349.619 266.896 349.504C266.982 349.389 267.011 349.259 266.996 349.115C266.939 348.885 266.723 348.712 266.479 348.712V348.669V348.669Z" fill="#2E353A"/>
<path d="M270.406 361.783C270.377 361.193 269.859 360.746 269.284 360.79C268.708 360.833 268.248 361.337 268.291 361.912C268.291 361.97 268.306 362.028 268.32 362.085C268.392 362.661 268.924 363.064 269.5 362.992H269.514C270.075 362.906 270.478 362.373 270.406 361.783Z" fill="white"/>
<path d="M269.356 363.539C268.536 363.539 267.845 362.92 267.773 362.1C267.701 361.682 267.802 361.25 268.075 360.919C268.593 360.2 269.586 360.041 270.305 360.559C270.665 360.819 270.895 361.207 270.953 361.653C271.025 362.071 270.91 362.503 270.651 362.848C270.392 363.179 270.018 363.41 269.6 363.467L269.356 363.539ZM269.356 361.409H269.284C268.996 361.437 268.78 361.711 268.824 361.999C268.852 362.287 269.126 362.503 269.413 362.46C269.557 362.445 269.687 362.373 269.773 362.258C269.859 362.143 269.903 362.013 269.874 361.869C269.845 361.61 269.615 361.409 269.356 361.409Z" fill="#2E353A"/>
<path d="M246.422 307.484C246.422 307.484 242.105 309.226 240.911 316.596C239.717 323.966 240.781 342.349 240.249 346.581C239.717 350.814 240.94 351.404 243.745 349.878C246.551 348.352 249.155 342.68 253.601 342.033C257.515 341.716 261.457 341.788 265.356 342.248C265.356 342.248 271.831 337.167 276.276 336.49C280.722 335.814 287.441 343.227 289.226 342.968C291.01 342.709 286.593 327.133 282.521 317.057C278.449 306.98 271.456 303.108 263.673 304.216C255.889 305.325 246.422 307.484 246.422 307.484Z" fill="white"/>
<path d="M241.53 351.188C241.17 351.202 240.825 351.102 240.523 350.9C239.659 350.31 239.415 348.957 239.717 346.51C239.918 344.854 239.875 340.895 239.818 336.318C239.731 329.48 239.631 320.972 240.379 316.495C241.631 308.923 246.033 307.052 246.22 306.98H246.307C246.407 306.98 255.947 304.849 263.673 303.755C272.306 302.532 279.14 307.21 283.096 316.927C286.305 324.816 291.384 340.766 290.031 343.112C289.902 343.357 289.657 343.53 289.384 343.573C288.478 343.702 287.255 342.853 284.981 341.212C282.392 339.326 278.823 336.749 276.349 337.109C272.104 337.714 265.759 342.652 265.687 342.709C265.572 342.796 265.443 342.839 265.299 342.824C261.443 342.364 257.544 342.292 253.673 342.594C251.112 342.968 249.127 345.228 247.371 347.229C246.436 348.453 245.285 349.518 244.005 350.367C243.256 350.828 242.408 351.116 241.53 351.188ZM246.594 308.002C246.192 308.204 242.537 310.104 241.444 316.639C240.71 320.958 240.825 329.465 240.897 336.26C240.897 340.881 241.012 344.897 240.782 346.61C240.48 349.115 240.868 349.777 241.127 349.964C241.386 350.152 242.005 350.166 243.487 349.36C244.652 348.554 245.688 347.589 246.566 346.481C248.436 344.35 250.565 341.917 253.529 341.5C257.414 341.169 261.328 341.241 265.198 341.701C266.291 340.852 272.018 336.606 276.205 335.943C279.082 335.54 282.722 338.146 285.614 340.262C286.679 341.154 287.859 341.889 289.125 342.436C289.83 340.838 286.391 327.824 282.089 317.258C278.348 308.045 271.874 303.597 263.817 304.749C256.436 305.843 247.371 307.815 246.594 307.988V308.002V308.002Z" fill="#2E353A"/>
<path d="M215.991 359.451C212.927 354.067 210.236 354.787 208.538 356.572C209.358 362.244 211.977 380.713 213.804 393.769H214.222C217.646 393.309 222.178 392.661 227.473 391.898L227.717 391.768C224.336 380.727 219.372 365.468 215.991 359.451Z" fill="white"/>
<path d="M213.804 394.331C213.531 394.331 213.301 394.129 213.272 393.856C211.545 381.519 208.869 362.575 208.006 356.658C207.977 356.485 208.035 356.313 208.15 356.197C209.013 355.19 210.308 354.643 211.632 354.758C213.286 354.988 214.912 356.485 216.452 359.206C219.818 365.137 224.725 380.079 228.235 391.567C228.322 391.84 228.178 392.143 227.904 392.243L227.689 392.344H227.559C222.25 393.107 217.718 393.784 214.293 394.216H213.847L213.804 394.331ZM209.114 356.773C209.991 362.906 212.567 381.044 214.265 393.208L227.041 391.394C223.559 380.036 218.782 365.482 215.531 359.724C214.164 357.306 212.811 355.996 211.502 355.809C210.596 355.751 209.718 356.097 209.114 356.773Z" fill="#2E353A"/>
<path d="M312.52 379.604C316.678 378.755 320.879 378.136 325.095 377.733C323.44 366.058 321.325 351.447 320.635 342.479C311.441 346.279 311.398 366.03 312.52 379.604Z" fill="white"/>
<path d="M312.52 380.079C312.405 380.079 312.289 380.036 312.203 379.964C312.074 379.878 312.002 379.734 311.987 379.59C310.736 364.547 311.182 345.804 320.433 341.917C320.591 341.831 320.764 341.831 320.922 341.917C321.066 342.018 321.167 342.176 321.181 342.349C321.829 350.857 323.8 364.705 325.382 375.818L325.627 377.546C325.656 377.69 325.613 377.848 325.512 377.963C325.426 378.078 325.296 378.15 325.152 378.165C320.951 378.568 316.764 379.187 312.635 380.036L312.52 380.079ZM320.16 343.242C311.901 347.733 312.074 367.109 312.966 378.884C316.548 378.165 320.318 377.603 324.476 377.171L324.318 376.005C322.778 365.209 320.879 351.836 320.16 343.242Z" fill="#2E353A"/>
<path d="M275.528 269.869C275.528 269.869 276.104 257.863 281.816 266.14C287.528 274.418 277.427 287.215 276.06 285.142C274.694 283.069 275.528 269.869 275.528 269.869Z" fill="white"/>
<path d="M276.449 285.905C276.089 285.92 275.758 285.747 275.557 285.445C274.118 283.285 274.895 271.236 274.996 269.84C274.996 269.149 275.37 263.463 277.873 262.758C279.168 262.398 280.621 263.391 282.305 265.824C285.614 270.617 283.744 276.347 282.305 279.327C280.65 282.825 278.089 285.776 276.55 285.905H276.449ZM278.363 263.765H278.132C276.78 264.154 276.161 268.084 276.075 269.869C275.701 274.893 275.485 283.401 276.449 284.797C276.694 284.797 278.017 284.063 279.643 281.702C282.521 277.599 284.636 271.121 281.37 266.4C280.175 264.701 279.111 263.765 278.363 263.765Z" fill="#2E353A"/>
<path d="M276.219 276.793H276.118C275.83 276.75 275.629 276.462 275.687 276.174V276.16C275.917 274.922 277.197 268.688 278.866 267.681C279.327 267.364 279.902 267.292 280.42 267.479C281.14 267.882 281.672 268.588 281.859 269.394C281.917 269.682 281.744 269.97 281.456 270.042C281.183 270.114 280.895 269.955 280.823 269.682C280.823 269.667 280.823 269.667 280.809 269.653C280.722 269.336 280.449 268.631 280.061 268.487C280.061 268.487 279.83 268.386 279.485 268.602C278.564 269.164 277.356 273.482 276.809 276.361C276.737 276.635 276.492 276.807 276.219 276.793Z" fill="#2E353A"/>
<path d="M279.816 276.75C279.643 276.75 279.471 276.663 279.37 276.519C279.212 276.275 279.269 275.944 279.514 275.771C280.104 275.325 280.363 274.547 280.147 273.842C280.118 273.712 280.032 273.597 279.902 273.54C278.996 273.396 278.061 273.554 277.24 273.972C276.967 274.087 276.65 273.972 276.535 273.698C276.406 273.439 276.521 273.137 276.78 273.007C276.794 273.007 276.794 272.993 276.809 272.993C277.902 272.446 279.154 272.287 280.348 272.561C280.765 272.734 281.068 273.093 281.183 273.54C281.528 274.691 281.096 275.944 280.132 276.663C280.032 276.721 279.917 276.75 279.816 276.75Z" fill="#2E353A"/>
<path d="M231.257 276.174C231.257 276.174 227.357 264.787 224.178 274.331C220.998 283.876 234.249 293.348 235.055 290.972C235.861 288.597 231.257 276.174 231.257 276.174Z" fill="white"/>
<path d="M234.436 291.879C234.106 291.865 233.789 291.807 233.472 291.692C229.962 290.526 220.912 282.436 223.674 274.159C224.61 271.352 225.732 269.984 227.07 269.984C229.631 269.984 231.544 275.339 231.76 275.987C232.25 277.311 236.393 288.64 235.573 291.131C235.4 291.606 234.94 291.922 234.436 291.879ZM227.084 271.064C226.279 271.064 225.444 272.287 224.696 274.504C222.883 279.96 226.753 285.574 230.624 288.727C232.839 290.541 234.336 290.929 234.58 290.771C235.098 289.187 232.508 281.083 230.753 276.376C230.005 274.144 228.379 271.064 227.084 271.064Z" fill="#2E353A"/>
<path d="M232.393 283.026C232.192 283.026 232.005 282.911 231.904 282.724C230.566 280.104 228.207 276.304 227.156 276.016C226.768 275.915 226.624 276.016 226.581 276.016C226.25 276.26 226.178 277.009 226.192 277.34C226.207 277.642 225.976 277.887 225.674 277.901C225.387 277.916 225.128 277.685 225.113 277.398V277.383C225.056 276.563 225.343 275.756 225.905 275.166C226.336 274.821 226.926 274.734 227.444 274.922C229.329 275.425 232.293 281.054 232.868 282.119C232.998 282.378 232.897 282.695 232.638 282.839C232.566 282.925 232.48 282.983 232.393 283.026Z" fill="#2E353A"/>
<path d="M228.912 283.991C228.854 284.005 228.797 284.005 228.739 283.991C227.602 283.573 226.854 282.494 226.854 281.284C226.854 280.838 227.041 280.406 227.387 280.118C228.466 279.528 229.703 279.327 230.912 279.543C231.199 279.586 231.415 279.845 231.372 280.133C231.372 280.133 231.372 280.133 231.372 280.147C231.343 280.435 231.084 280.637 230.811 280.608C230.797 280.608 230.782 280.608 230.768 280.608C229.861 280.435 228.926 280.55 228.092 280.939C227.991 281.025 227.933 281.155 227.933 281.284C227.933 282.033 228.379 282.709 229.084 282.969C229.372 283.069 229.53 283.372 229.43 283.66C229.329 283.861 229.128 283.991 228.912 283.991Z" fill="#2E353A"/>
<path d="M243.098 299.998C243.098 299.998 249.328 321.793 250.537 325.823C251.975 330.531 260.378 341.831 264.68 340.089C268.982 338.347 269.773 325.348 270.349 321.49C270.924 317.632 269.788 296.212 269.788 296.212L243.098 299.998Z" fill="white"/>
<path d="M263.701 340.809C262.939 340.795 262.205 340.593 261.529 340.233C256.968 338.059 251.227 329.926 250.019 325.967C248.81 322.009 242.638 300.373 242.566 300.157C242.494 300.013 242.494 299.854 242.566 299.71C242.652 299.581 242.782 299.494 242.94 299.466L269.644 295.68C269.788 295.651 269.946 295.694 270.061 295.795C270.176 295.896 270.248 296.025 270.248 296.183C270.248 297.062 271.399 317.69 270.809 321.562C270.723 322.153 270.636 322.93 270.521 323.866C269.658 331.178 268.435 339.11 264.766 340.579C264.421 340.723 264.061 340.795 263.701 340.809ZM243.774 300.43C244.796 303.957 249.975 322.023 251.055 325.636C252.134 329.25 257.745 337.153 261.989 339.24C262.738 339.686 263.63 339.801 264.464 339.557C267.816 338.189 268.967 328.415 269.529 323.722C269.644 322.786 269.73 321.98 269.816 321.39C270.334 317.978 269.457 300.272 269.284 296.817L243.774 300.43Z" fill="#2E353A"/>
<path d="M228.034 249.931C228.034 249.931 229.285 270.761 233.645 285.488C238.005 300.214 251.04 311.989 257.802 311.601C264.565 311.212 277.37 293.477 276.593 283.919C275.816 274.36 277.485 250.277 272.794 241.28C268.104 232.283 261.601 230.382 248.162 231.721C234.724 233.06 225.573 240.618 228.034 249.931Z" fill="white"/>
<path d="M257.471 312.148C250.105 312.148 237.328 299.926 233.141 285.646C228.955 271.366 227.573 251.198 227.501 250.018C226.581 246.664 227.228 243.065 229.257 240.229C232.652 235.335 239.515 232.038 248.105 231.189C262.349 229.749 268.694 232.254 273.284 241.035C276.694 247.585 276.78 261.635 276.852 272.935C276.852 277.369 276.852 281.184 277.125 283.876C277.643 290.094 272.607 299.466 267.37 305.469C265.298 307.858 261.299 311.903 257.831 312.105L257.471 312.148ZM254.939 231.88C252.925 231.88 250.695 232.009 248.206 232.254C240.062 233.075 233.3 236.285 230.149 240.891C228.293 243.468 227.703 246.764 228.552 249.831C228.552 249.859 228.552 249.903 228.552 249.931C228.552 250.147 229.861 270.891 234.149 285.373C238.465 300.085 251.601 311.486 257.759 311.097C259.989 310.968 263.198 308.679 266.536 304.835C271.629 298.976 276.521 289.936 276.032 284.02C275.802 281.284 275.787 277.441 275.758 272.993C275.686 261.808 275.6 247.902 272.305 241.582C268.665 234.629 264.133 231.88 254.939 231.88Z" fill="#2E353A"/>
<path d="M230.005 274.634C230.005 274.634 232.293 273.828 231.76 270.042C231.228 266.256 230.422 263.967 231.76 263.06C233.098 262.153 235.127 261.376 235.041 257.302C234.954 253.228 229.775 250.824 230.868 246.577C232.35 241.971 236.839 239.02 241.659 239.495C246.537 240.013 247.846 247.527 255.63 251.486C263.414 255.445 272.579 253.89 272.579 253.89C271.715 255.243 271.874 257.014 272.953 258.209C273.946 259.36 274.564 260.785 274.737 262.297C274.737 262.297 275.399 270.387 276.823 270.186C278.247 269.984 277.542 251.544 277.14 248.708C276.737 245.872 277.255 234.312 268.507 230.426C259.759 226.539 247.17 227.676 239.587 230.195C232.005 232.715 228.077 236.904 226.365 243.885C224.653 250.867 230.005 274.634 230.005 274.634Z" fill="#2E353A"/>
<path d="M230.005 275.166C229.919 275.181 229.832 275.181 229.746 275.166C229.616 275.08 229.516 274.95 229.473 274.806C229.257 273.828 224.163 250.795 225.832 243.77C227.501 236.745 231.717 232.254 239.4 229.706C247.515 227 260.191 226.222 268.708 229.936C276.55 233.377 277.197 242.633 277.514 247.096C277.514 247.743 277.586 248.276 277.643 248.65C277.859 250.09 278.118 255.488 278.176 260.44C278.262 270.517 277.456 270.646 276.866 270.733C276.607 270.776 276.334 270.689 276.132 270.517C274.852 269.495 274.305 264.01 274.176 262.355C273.989 260.958 273.399 259.634 272.492 258.554C271.586 257.446 271.269 255.992 271.643 254.61C266.075 255.243 260.45 254.351 255.356 252.019C252.047 250.191 249.198 247.614 247.04 244.504C245.213 242.172 243.76 240.315 241.573 240.099C237.026 239.653 232.782 242.431 231.357 246.764C230.825 248.837 232.005 250.478 233.242 252.206C234.508 253.602 235.328 255.373 235.573 257.244C235.674 261.16 233.861 262.311 232.537 263.161L232.062 263.463C231.357 263.952 231.544 265.234 231.962 267.652C232.077 268.343 232.206 269.092 232.321 269.926C232.911 274.087 230.321 275.051 230.221 275.094C230.149 275.138 230.077 275.152 230.005 275.166ZM254.579 228.454C249.544 228.425 244.551 229.188 239.745 230.699C232.35 233.161 228.509 237.134 226.883 243.986C225.444 250.075 229.487 269.667 230.365 273.784C231.242 272.82 231.573 271.467 231.257 270.2C231.141 269.379 231.012 268.631 230.897 267.94C230.436 265.334 230.149 263.621 231.458 262.686L231.947 262.369C233.185 261.577 234.58 260.699 234.494 257.388C234.278 255.704 233.544 254.12 232.393 252.854C231.07 250.997 229.688 249.082 230.336 246.505C231.501 241.942 236.71 238.516 241.702 239.034C244.35 239.308 246.019 241.424 247.918 243.857C249.975 246.836 252.695 249.312 255.874 251.054C263.414 254.883 272.406 253.429 272.492 253.415C272.708 253.372 272.924 253.473 273.039 253.66C273.169 253.847 273.169 254.077 273.039 254.264C272.348 255.43 272.492 256.913 273.413 257.906C274.478 259.144 275.125 260.685 275.298 262.311C275.399 264.773 275.888 267.206 276.737 269.509C277.542 267.047 277.082 251.803 276.665 248.794C276.665 248.405 276.564 247.844 276.521 247.167C276.219 242.849 275.614 234.097 268.363 230.93C263.975 229.173 259.284 228.338 254.579 228.454Z" fill="#2E353A"/>
<path d="M242.292 283.271C236.465 283.285 231.717 278.564 231.717 272.719C231.717 266.875 236.422 262.139 242.264 262.139C248.091 262.124 252.839 266.846 252.839 272.69C252.853 277.974 248.954 282.45 243.731 283.17C243.256 283.228 242.767 283.271 242.292 283.271ZM242.292 263.118C241.832 263.118 241.386 263.146 240.926 263.204C235.717 263.938 232.091 268.761 232.825 273.972C233.559 279.183 238.379 282.81 243.587 282.076C248.796 281.342 252.421 276.52 251.688 271.309C251.328 268.804 250.004 266.544 247.976 265.018C246.335 263.794 244.364 263.146 242.321 263.161L242.292 263.118Z" fill="#2E353A"/>
<path d="M265.184 280.018C259.342 280.003 254.608 275.253 254.608 269.408C254.623 264.125 258.508 259.663 263.745 258.928C269.529 258.094 274.895 262.124 275.73 267.911V267.926C276.579 273.698 272.579 279.067 266.809 279.902C266.291 279.974 265.773 280.018 265.241 280.018H265.184ZM265.184 259.864C264.737 259.864 264.291 259.893 263.845 259.951C258.594 260.656 254.925 265.493 255.63 270.733C256.335 275.973 261.169 279.658 266.406 278.952C271.644 278.247 275.327 273.41 274.622 268.17C273.989 263.434 269.96 259.893 265.184 259.864Z" fill="#2E353A"/>
<path d="M244.681 272.906C244.911 274.533 244.422 275.958 243.573 276.073C242.724 276.188 241.846 274.965 241.616 273.338C241.386 271.712 241.889 270.286 242.738 270.171C243.587 270.056 244.451 271.28 244.681 272.906Z" fill="#2E353A"/>
<path d="M264.033 270.2C264.263 271.827 263.774 273.237 262.925 273.367C262.076 273.496 261.198 272.259 260.968 270.632C260.738 269.005 261.227 267.58 262.076 267.465C262.925 267.35 263.802 268.516 264.033 270.2Z" fill="#2E353A"/>
<path d="M254.349 264.658C254.349 269.682 254.651 274.706 255.284 279.701C256.148 284.163 257.025 286.898 254.191 287.33C251.357 287.762 251.4 282.911 251.4 282.911" fill="white"/>
<path d="M253.875 287.892C253.299 287.892 252.752 287.69 252.321 287.302C250.882 286.035 250.882 282.983 250.882 282.897C250.896 282.609 251.126 282.378 251.414 282.364C251.716 282.364 251.961 282.609 251.961 282.911C251.889 284.192 252.277 285.459 253.04 286.495C253.342 286.755 253.745 286.87 254.134 286.798C254.594 286.769 255.026 286.553 255.313 286.208C255.903 285.373 255.5 283.472 255.011 281.054L254.767 279.802C254.134 274.778 253.817 269.725 253.817 264.672C253.817 264.37 254.062 264.125 254.364 264.125C254.651 264.111 254.882 264.341 254.896 264.629C254.896 264.643 254.896 264.643 254.896 264.658C254.896 269.653 255.213 274.648 255.831 279.6L256.076 280.838C256.637 283.616 257.054 285.617 256.191 286.841C255.731 287.431 255.04 287.805 254.292 287.863L253.875 287.892Z" fill="#2E353A"/>
<path d="M246.004 290.656C246.004 290.656 254.22 295.996 264.407 288.036Z" fill="white"/>
<path d="M252.939 292.93C250.421 292.959 247.947 292.34 245.745 291.116C245.501 290.958 245.414 290.627 245.573 290.382C245.573 290.382 245.573 290.368 245.587 290.368C245.731 290.123 246.062 290.051 246.292 290.195C246.306 290.195 246.306 290.209 246.321 290.209C246.652 290.411 254.364 295.219 264.104 287.618C264.335 287.431 264.68 287.474 264.852 287.719C265.025 287.964 264.996 288.295 264.752 288.468C261.443 291.26 257.27 292.829 252.939 292.93Z" fill="#2E353A"/>
<path d="M252.493 270.761C252.22 270.776 251.99 270.574 251.961 270.301C251.918 270.013 252.119 269.739 252.407 269.696C252.407 269.696 252.407 269.696 252.421 269.696L255.299 269.293C255.572 269.236 255.846 269.423 255.903 269.696C255.903 269.711 255.903 269.739 255.918 269.754C255.946 270.042 255.745 270.315 255.457 270.358L252.58 270.761H252.493Z" fill="#2E353A"/>
<path d="M229.631 274.259C229.329 274.231 229.113 273.972 229.127 273.669C229.142 273.424 229.314 273.237 229.559 273.18L231.688 272.877C231.991 272.863 232.25 273.108 232.25 273.41C232.264 273.669 232.077 273.9 231.832 273.957L229.717 274.259H229.631Z" fill="#2E353A"/>
<path d="M275.169 267.781C274.91 267.781 274.679 267.58 274.636 267.321C274.593 267.019 274.794 266.745 275.097 266.702L277.226 266.4C277.528 266.385 277.787 266.63 277.787 266.932C277.802 267.191 277.614 267.422 277.37 267.479L275.255 267.781H275.169Z" fill="#2E353A"/>
<path d="M235.4 264.946C235.156 264.946 234.926 264.888 234.71 264.773C234.019 264.384 233.76 263.506 234.149 262.815C235.587 260.224 240.019 256.208 246.724 259.49C247.443 259.835 247.731 260.699 247.386 261.419C247.04 262.139 246.177 262.427 245.458 262.081C239.515 259.202 236.825 263.996 236.667 264.197C236.408 264.658 235.918 264.946 235.4 264.946Z" fill="#2E353A"/>
<path d="M258.061 261.721C257.27 261.721 256.623 261.088 256.623 260.282C256.623 260.037 256.68 259.807 256.795 259.591C258.234 256.999 262.68 252.983 269.37 256.265C270.075 256.625 270.349 257.503 269.989 258.209C269.644 258.885 268.824 259.173 268.119 258.856C262.176 255.977 259.486 260.771 259.313 260.973C259.054 261.433 258.579 261.721 258.061 261.721Z" fill="#2E353A"/>
<path d="M241.53 278.348C241.227 278.304 241.026 278.017 241.084 277.714C241.127 277.484 241.299 277.297 241.53 277.268L246.249 276.606C246.537 276.563 246.796 276.75 246.853 277.023C246.853 277.038 246.853 277.052 246.853 277.066C246.896 277.354 246.695 277.628 246.407 277.671C246.407 277.671 246.407 277.671 246.393 277.671L241.673 278.348H241.53Z" fill="#2E353A"/>
<path d="M260.881 275.598C260.608 275.598 260.392 275.397 260.349 275.138C260.306 274.835 260.507 274.562 260.81 274.519L265.529 273.856C265.817 273.813 266.09 274.015 266.133 274.303C266.176 274.605 265.975 274.878 265.673 274.922L260.953 275.584L260.881 275.598Z" fill="#2E353A"/>
<path d="M296.194 404.227L246.62 411.24L247.022 414.091L296.597 407.077L296.194 404.227Z" fill="white"/>
<path d="M339.601 437.132L215.138 454.74L215.541 457.591L340.004 439.983L339.601 437.132Z" fill="white"/>
<path d="M304.367 410.81L240.618 419.829L241.021 422.679L304.769 413.661L304.367 410.81Z" fill="white"/>
<path d="M232.824 433.421L232.168 433.514L233.766 444.817L234.421 444.724L232.824 433.421Z" fill="#2E353A"/>
<path d="M239.542 432.472L238.886 432.564L240.484 443.867L241.139 443.774L239.542 432.472Z" fill="#2E353A"/>
<path d="M241.303 432.029L240.648 432.122L242.253 443.424L242.908 443.33L241.303 432.029Z" fill="#2E353A"/>
<path d="M242.915 431.812L242.26 431.906L243.866 443.207L244.521 443.114L242.915 431.812Z" fill="#2E353A"/>
<path d="M246.441 431.308L245.785 431.401L247.391 442.702L248.046 442.609L246.441 431.308Z" fill="#2E353A"/>
<path d="M247.793 431.121L247.138 431.214L248.743 442.516L249.398 442.423L247.793 431.121Z" fill="#2E353A"/>
<path d="M235.309 433.06L233.998 433.245L235.596 444.547L236.906 444.362L235.309 433.06Z" fill="#2E353A"/>
<path d="M254.21 430.201L253.555 430.294L255.16 441.596L255.815 441.503L254.21 430.201Z" fill="#2E353A"/>
<path d="M256.696 429.852L255.385 430.038L256.991 441.339L258.301 441.153L256.696 429.852Z" fill="#2E353A"/>
<path d="M238.942 432.37L237.632 432.556L239.237 443.858L240.547 443.671L238.942 432.37Z" fill="#2E353A"/>
<path d="M245.019 431.678L243.709 431.863L245.306 443.165L246.617 442.98L245.019 431.678Z" fill="#2E353A"/>
<path d="M250.727 430.703L250.072 430.797L251.677 442.098L252.333 442.005L250.727 430.703Z" fill="#2E353A"/>
<path d="M252.094 430.502L251.439 430.596L253.045 441.897L253.7 441.804L252.094 430.502Z" fill="#2E353A"/>
<path d="M249.731 430.844L248.421 431.03L250.026 442.331L251.337 442.145L249.731 430.844Z" fill="#2E353A"/>
<path d="M259.302 429.495L258.647 429.588L260.252 440.89L260.908 440.796L259.302 429.495Z" fill="#2E353A"/>
<path d="M266.036 428.531L265.381 428.624L266.986 439.925L267.641 439.832L266.036 428.531Z" fill="#2E353A"/>
<path d="M267.388 428.33L266.733 428.423L268.338 439.724L268.993 439.631L267.388 428.33Z" fill="#2E353A"/>
<path d="M268.984 428.099L268.329 428.192L269.934 439.493L270.59 439.4L268.984 428.099Z" fill="#2E353A"/>
<path d="M272.539 427.582L271.883 427.675L273.489 438.976L274.144 438.883L272.539 427.582Z" fill="#2E353A"/>
<path d="M273.85 427.427L273.195 427.52L274.802 438.821L275.458 438.728L273.85 427.427Z" fill="#2E353A"/>
<path d="M261.849 429.092L260.539 429.279L262.146 440.58L263.457 440.394L261.849 429.092Z" fill="#2E353A"/>
<path d="M280.296 426.504L279.641 426.598L281.248 437.899L281.904 437.806L280.296 426.504Z" fill="#2E353A"/>
<path d="M282.779 426.138L281.469 426.324L283.074 437.625L284.384 437.439L282.779 426.138Z" fill="#2E353A"/>
<path d="M264.616 428.914L263.305 429.1L264.903 440.402L266.213 440.217L264.616 428.914Z" fill="#2E353A"/>
<path d="M271.104 427.992L269.793 428.178L271.391 439.48L272.701 439.295L271.104 427.992Z" fill="#2E353A"/>
<path d="M276.825 426.992L276.17 427.085L277.775 438.386L278.431 438.293L276.825 426.992Z" fill="#2E353A"/>
<path d="M278.163 426.776L277.508 426.87L279.113 438.171L279.768 438.078L278.163 426.776Z" fill="#2E353A"/>
<path d="M275.8 427.132L274.49 427.318L276.095 438.62L277.406 438.433L275.8 427.132Z" fill="#2E353A"/>
<path d="M284.624 425.883L283.969 425.976L285.574 437.278L286.23 437.184L284.624 425.883Z" fill="#2E353A"/>
<path d="M285.976 425.682L285.321 425.775L286.927 437.077L287.582 436.983L285.976 425.682Z" fill="#2E353A"/>
<path d="M292.408 424.775L291.753 424.868L293.358 436.169L294.014 436.076L292.408 424.775Z" fill="#2E353A"/>
<path d="M294.879 424.425L293.568 424.611L295.174 435.913L296.484 435.726L294.879 424.425Z" fill="#2E353A"/>
<path d="M288.94 425.25L288.284 425.343L289.89 436.645L290.545 436.551L288.94 425.25Z" fill="#2E353A"/>
<path d="M290.263 425.078L289.608 425.171L291.213 436.472L291.869 436.379L290.263 425.078Z" fill="#2E353A"/>
<path d="M287.534 425.675L286.224 425.86L287.821 437.163L289.132 436.978L287.534 425.675Z" fill="#2E353A"/>
<path d="M297.104 424.312L296.449 424.405L298.046 435.707L298.701 435.614L297.104 424.312Z" fill="#2E353A"/>
<path d="M303.824 423.391L303.169 423.484L304.766 434.786L305.422 434.693L303.824 423.391Z" fill="#2E353A"/>
<path d="M305.571 422.917L304.916 423.01L306.522 434.312L307.177 434.219L305.571 422.917Z" fill="#2E353A"/>
<path d="M307.182 422.674L306.527 422.767L308.132 434.069L308.788 433.975L307.182 422.674Z" fill="#2E353A"/>
<path d="M310.707 422.17L310.052 422.263L311.657 433.564L312.313 433.471L310.707 422.17Z" fill="#2E353A"/>
<path d="M311.664 422.253L311.009 422.346L312.606 433.648L313.261 433.556L311.664 422.253Z" fill="#2E353A"/>
<path d="M300.019 423.666L298.709 423.853L300.317 435.154L301.627 434.968L300.019 423.666Z" fill="#2E353A"/>
<path d="M318.491 421.047L317.836 421.14L319.441 432.441L320.097 432.348L318.491 421.047Z" fill="#2E353A"/>
<path d="M320.948 420.713L319.637 420.9L321.243 432.201L322.553 432.015L320.948 420.713Z" fill="#2E353A"/>
<path d="M303.209 423.232L301.898 423.418L303.504 434.719L304.814 434.533L303.209 423.232Z" fill="#2E353A"/>
<path d="M309.302 422.597L307.991 422.782L309.589 434.085L310.899 433.899L309.302 422.597Z" fill="#2E353A"/>
<path d="M315.011 421.565L314.355 421.658L315.961 432.96L316.616 432.866L315.011 421.565Z" fill="#2E353A"/>
<path d="M316.365 421.394L315.71 421.487L317.318 432.789L317.973 432.695L316.365 421.394Z" fill="#2E353A"/>
<path d="M314.015 421.705L312.704 421.891L314.309 433.193L315.62 433.006L314.015 421.705Z" fill="#2E353A"/>
<path d="M233.947 138.684C233.674 138.684 233.415 138.656 233.156 138.584C231.631 138.152 230.739 136.554 231.171 135.028C231.329 134.467 235.242 120.921 251.155 98.8239C252.091 97.5283 253.889 97.2404 255.17 98.1617C256.464 99.0974 256.752 100.897 255.831 102.178C240.595 123.339 236.753 136.453 236.71 136.583C236.35 137.835 235.228 138.684 233.947 138.684Z" fill="#2E353A"/>
</svg>
